@startuml classDiagram
class User{
 +name: String
    +last_Name: String
    +type: String
    +email: String
}
class Post{
 +title: String
    +image: attachment
    +description: String
    + author: String
    + approve: bool
    + getPost()
    +newPost()
    +setApprove()

}
class Event{
  +date: Date 
  +time: Time
  +getEvent()
}

class VerifyPostController{
+uploadPost()
}
class CreatePostController{
  +createPost()
}
class ConsultPostController{
+ getLatestUploadedPosts()
}
class SearchPostController{
+searchPost()
}
class ConsultCalendarController{
  +getEventsByMonth()
}
class VerifyPostView{
+approveRejectPost()
}
class CalendarView{
  +getCalendar()
}
class PostsView{
  +getLatestPost()
}
class CreatePostView{
 +setPost()
}
class SearchPostView{
  setFilterParameter()
}

User--PostsView
User-- VerifyPostView
User-- CreatePostView
User-- SearchPostView
PostsView..>ConsultPostController
CreatePostView..>CreatePostController
VerifyPostView..>VerifyPostController
SearchPostView..>SearchPostController
SearchPostController..>Post
CreatePostController..>Post
VerifyPostController..>Post
ConsultPostController..>Post
User--CalendarView
CalendarView..>ConsultCalendarController
Post<|--Event
ConsultCalendarController..>Event
@enduml
