@startuml classDiagram
class user{
  +name: String
  +last_Name: String
   +type: String
   +email: String
}

class Post{
  +title: String
  +image: attachment
  +description: String
}

class Profile{}

class profileView{
  +showProfile()
  +requestData()
}

class ProfileManager{
+editProfile()
+delteProfile()
}

class Calendar{
    +event_Activity: String
    +date: Date
}
class registView{
   +dataRequest()
}
class userManager{
     +createUser()
     +loginUser()
     +nullify()
}
class loginView{
+dataRequest()
}
class postWallView{
  +showPosts()
  +postViewingRequest()
}
class createPostView{
 +dataRequest()
}
class postManager{
  +searchPost()
  +showPost()
  +deletePost()
  +addPost()
}
class postVerificationView{
  +showPosts()
  +rejectPost()
  +approvePost()
}
class calendarView{
  +solicitarDatosBusqueda()
}

class logOutView{
  +requestLogOut()
}

user <|--Profile
user-- registView
user-- logOutView
logOutView-- userManager
registView-- userManager
user-- loginView
loginView-- userManager
Profile--profileView
profileView--ProfileManager
Post--postWallView
Post-- postVerificationView
Post-- createPostView
Calendar--calendarView
postWallView--postManager
createPostView--postManager
postVerificationView--postManager
calendarView--postManager
user-->Post 
@enduml
