@startuml Trace diagram

allow_mixing

package View <<folder>> {
    class CreatePostView <<JFrame>> {}
    class Header <<JPanel>> {}
    class Form <<JPanel>> {}
    class Notification <<JLabel>> {}
    class Calendar <<JLabel>> {}
    class Profile <<JLabel>> {}
    class LogOut <<JLabel>> {}
    class Logo <<JLabel>> {}
    class Bar <<JLabel>> {}
    class Title <<JLabel>> {}
    class Place <<JLabel>> {}
    class Date <<JLabel>> {}
    class Description <<JLabel>> {}
    class UploadFile <<JLabel>> {}
    class Send <<JButton>> {}
    class File <<JButton>> {}

    CreatePostView -- Header
    CreatePostView -- Form
    Header -- Notification
    Header -- Calendar
    Header -- Profile
    Header -- LogOut
    Header -- Logo
    Header -- Bar

    Form -- Title
    Form -- Place
    Form -- Date
    Form -- Description
    Form -- UploadFile
    Form -- Send

    UploadFile -- File
    hide members
}

boundary "CreatePostView" as view
control "createPostController" as controller

' Representación de `post_entity` como entidad con círculo y base
circle "Post" as post_circle

view --> controller
controller --> post_circle

class createPostController {}

CreatePostView.->view : <trace>
createPostController.->controller : <trace>
post_circle.->Post : <trace>

hide circle
hide members

@enduml
